<svg width="55" height="24" viewBox="0 0 55 24" fill="none" xmlns="http://www.w3.org/2000/svg">
<path d="M0.486492 20.8139C-0.109869 17.9571 -0.157932 15.7403 0.342215 14.1634C1.47718 13.9037 2.56409 13.6533 3.60289 13.4121C4.64168 13.171 5.60352 12.8742 6.48844 12.5217C7.39256 12.1507 8.1813 11.6684 8.85458 11.0747C9.52786 10.4626 10.0665 9.66491 10.4705 8.68169L9.66254 8.40343C9.06618 9.83187 8.02738 10.88 6.54615 11.5478C5.06491 12.1971 3.08349 12.5124 0.601915 12.4939C0.40953 11.3067 0.265253 10.1101 0.169083 8.9043C0.0921196 7.67996 0.0536604 6.52056 0.0536604 5.42604C0.0729125 4.33156 0.120975 3.36693 0.197938 2.53214C0.294108 1.67881 0.399926 1.02953 0.515348 0.584317C1.07321 0.584317 1.76574 0.593595 2.59294 0.612143C3.43936 0.630695 4.34353 0.658521 5.30536 0.695621C6.26719 0.714173 7.20022 0.732726 8.10434 0.751273C9.00847 0.769826 9.79721 0.788378 10.4705 0.806926C10.2204 1.36345 9.97995 1.91997 9.74911 2.47649C9.51826 3.03301 9.49901 3.57099 9.6914 4.0904C9.94149 3.07012 10.4416 2.26316 11.1919 1.66954C11.9421 1.07591 12.8848 0.649247 14.0197 0.389537C15.1739 0.129827 16.4532 -2.86102e-05 17.8575 -2.86102e-05C19.6273 -2.86102e-05 21.1663 0.213305 22.4744 0.639974C23.7825 1.04809 24.8021 1.71591 25.5331 2.64345C26.2641 3.57099 26.6296 4.82317 26.6296 6.39996C26.6296 7.45735 26.4372 8.30143 26.0525 8.93213C25.6677 9.56287 25.1387 10.0916 24.4654 10.5182C23.7921 10.9263 23.0226 11.3159 22.157 11.6869C21.3106 12.058 20.4256 12.5124 19.5023 13.0504L20.0217 13.6904C21.2143 13.0411 22.3494 12.5217 23.4266 12.1321C24.5039 11.724 25.4946 11.6127 26.3987 11.7982C26.5334 12.3362 26.62 13.0319 26.6584 13.8852C26.7161 14.7385 26.7354 15.6197 26.7161 16.5287C26.7161 17.4377 26.668 18.2817 26.5719 19.0608C26.4757 19.84 26.3506 20.4243 26.1967 20.8139C25.1387 20.7768 24.1287 20.7397 23.1669 20.7026C22.2243 20.6655 21.2528 20.6191 20.2525 20.5634C19.2714 20.5078 18.1942 20.4614 17.0207 20.4243C15.8665 20.4058 14.5295 20.3965 13.0098 20.3965C11.0476 20.3965 9.37398 20.4058 7.98892 20.4243C6.60386 20.4614 5.44003 20.4985 4.49741 20.5356C3.55478 20.5913 2.76608 20.6377 2.13126 20.6747C1.49643 20.7304 0.94818 20.7768 0.486492 20.8139ZM38.9866 23.5965C38.8324 23.2255 38.7364 22.8823 38.6981 22.5669C38.6593 22.2701 38.6304 21.8063 38.6115 21.1756C39.304 20.9716 39.8712 20.7026 40.314 20.3687C40.7563 20.0533 41.1409 19.6359 41.4682 19.1165L40.7468 18.7269C40.3811 19.3391 39.8234 19.8307 39.0732 20.2017C38.3229 20.5542 37.1493 20.7304 35.5528 20.7304C35.3603 20.7304 35.0523 20.7211 34.6293 20.7026C34.2061 20.7026 33.7925 20.6933 33.3885 20.6747C32.9845 20.6747 32.7056 20.6747 32.5517 20.6747C31.6668 20.6747 30.9454 20.684 30.3875 20.7026C29.8297 20.7397 29.3872 20.7768 29.0602 20.8139C28.9063 20.4429 28.7909 19.942 28.7139 19.3113C28.637 18.662 28.5889 17.9663 28.5697 17.2243C28.5697 16.4823 28.5985 15.7773 28.6562 15.1095C28.7139 14.4232 28.8101 13.8759 28.9448 13.4678C30.2529 12.3919 31.3302 11.353 32.1766 10.3513C33.0423 9.34952 33.7636 8.40343 34.3407 7.513C34.9369 6.60404 35.4469 5.76926 35.8702 5.00865C36.3125 4.22953 36.7548 3.54316 37.1976 2.94954C37.6593 2.33736 38.1881 1.82722 38.7846 1.4191C39.4001 1.01099 40.1697 0.723447 41.0931 0.556491C41.6702 0.445187 42.3239 0.408087 43.0552 0.445186C43.8055 0.463739 44.5846 0.510117 45.3925 0.584317C46.2005 0.639969 46.9985 0.667795 47.7875 0.667795C49.0378 0.667795 50.1248 0.658521 51.0482 0.639974C51.9905 0.621421 52.6736 0.575043 53.097 0.500839C53.2701 1.02026 53.395 1.5304 53.4721 2.03127C53.5681 2.53214 53.6164 3.08867 53.6164 3.70084C53.6164 4.35013 53.5586 4.91591 53.4432 5.39822C53.3467 5.862 53.2218 6.32578 53.0681 6.78952C52.9333 7.23474 52.8084 7.75417 52.693 8.34778C52.5965 8.92287 52.5487 9.65561 52.5487 10.546C52.5487 10.88 52.5775 11.2603 52.6353 11.6869C52.693 12.095 52.8373 12.4753 53.0681 12.8278C53.2989 13.1617 53.6641 13.3843 54.1646 13.4956C54.3567 13.7924 54.5009 14.2469 54.5974 14.8591C54.6935 15.4713 54.7417 16.1298 54.7417 16.8347C54.7607 17.5397 54.7318 18.2075 54.6552 18.8382C54.5781 19.469 54.4532 19.9513 54.28 20.2852C53.8567 20.3037 53.5298 20.5078 53.2989 20.8973C53.0681 21.3055 52.9044 21.76 52.8084 22.2608C52.7119 22.7617 52.6641 23.1791 52.6641 23.513C52.0676 23.4945 51.2308 23.4295 50.1537 23.3182C49.0955 23.2255 47.893 23.1791 46.5468 23.1791C45.6234 23.1791 44.6806 23.1977 43.7189 23.2347C42.7568 23.2904 41.8622 23.346 41.0354 23.4017C40.208 23.4759 39.525 23.5408 38.9866 23.5965ZM38.9866 12.5495H40.4871V9.96169H38.9866V12.5495Z" fill="black"/>
</svg>
