<svg width="32" height="32" viewBox="0 0 32 32" fill="none" xmlns="http://www.w3.org/2000/svg">
<path d="M18.663 5.33331C19.144 5.33331 19.6161 5.46343 20.0293 5.70989C20.4424 5.95636 20.7812 6.30999 21.0097 6.73331L21.6577 7.93331C21.8862 8.35664 22.2249 8.71027 22.638 8.95673C23.0512 9.2032 23.5233 9.33332 24.0043 9.33331H26.667C27.3742 9.33331 28.0525 9.61426 28.5526 10.1144C29.0527 10.6145 29.3337 11.2927 29.3337 12V24C29.3337 24.7072 29.0527 25.3855 28.5526 25.8856C28.0525 26.3857 27.3742 26.6666 26.667 26.6666H5.33366C4.62641 26.6666 3.94814 26.3857 3.44804 25.8856C2.94794 25.3855 2.66699 24.7072 2.66699 24V12C2.66699 11.2927 2.94794 10.6145 3.44804 10.1144C3.94814 9.61426 4.62641 9.33331 5.33366 9.33331H7.99633C8.47689 9.33334 8.94852 9.2035 9.36137 8.95753C9.77421 8.71157 10.1129 8.35861 10.3417 7.93598L10.9937 6.73065C11.2224 6.30802 11.5611 5.95506 11.974 5.70909C12.3868 5.46312 12.8584 5.33329 13.339 5.33331H18.663Z" stroke="white" stroke-width="2.66667" stroke-linecap="round" stroke-linejoin="round"/>
<path d="M16 21.3333C18.2091 21.3333 20 19.5425 20 17.3333C20 15.1242 18.2091 13.3333 16 13.3333C13.7909 13.3333 12 15.1242 12 17.3333C12 19.5425 13.7909 21.3333 16 21.3333Z" stroke="white" stroke-width="2.66667" stroke-linecap="round" stroke-linejoin="round"/>
</svg>
