<svg width="64" height="64" viewBox="0 0 64 64" fill="none" xmlns="http://www.w3.org/2000/svg">
<path d="M30.8321 8.70978C30.9472 8.50073 31.1163 8.32641 31.3217 8.20499C31.5272 8.08358 31.7614 8.01953 32.0001 8.01953C32.2387 8.01953 32.473 8.08358 32.6784 8.20499C32.8839 8.32641 33.053 8.50073 33.1681 8.70978L41.0401 23.6538C41.2278 23.9998 41.4898 24.3 41.8073 24.5328C42.1248 24.7655 42.4899 24.9251 42.8763 25.0001C43.2628 25.075 43.6611 25.0635 44.0426 24.9663C44.424 24.869 44.7793 24.6886 45.0827 24.4378L56.4881 14.6671C56.707 14.489 56.9768 14.385 57.2586 14.3701C57.5404 14.3551 57.8198 14.4299 58.0563 14.5838C58.2929 14.7376 58.4746 14.9626 58.5752 15.2263C58.6757 15.49 58.6901 15.7788 58.6161 16.0511L51.0587 43.3738C50.9045 43.9329 50.5721 44.4265 50.1121 44.7797C49.652 45.1329 49.0894 45.3265 48.5094 45.3311H15.4934C14.913 45.3271 14.3497 45.1337 13.8891 44.7805C13.4285 44.4272 13.0958 43.9333 12.9414 43.3738L5.38674 16.0538C5.31274 15.7814 5.32706 15.4926 5.42765 15.229C5.52823 14.9653 5.70989 14.7403 5.94648 14.5864C6.18306 14.4326 6.46236 14.3577 6.74418 14.3727C7.026 14.3877 7.2958 14.4917 7.51474 14.6698L18.9174 24.4405C19.2209 24.6912 19.5761 24.8717 19.9576 24.9689C20.3391 25.0661 20.7373 25.0777 21.1238 25.0027C21.5103 24.9278 21.8754 24.7682 22.1929 24.5354C22.5103 24.3027 22.7723 24.0025 22.9601 23.6565L30.8321 8.70978Z" stroke="white" stroke-width="5.33333" stroke-linecap="round" stroke-linejoin="round"/>
<path d="M13.3333 56H50.6666" stroke="white" stroke-width="5.33333" stroke-linecap="round" stroke-linejoin="round"/>
</svg>
