<svg width="32" height="32" viewBox="0 0 32 32" fill="none" xmlns="http://www.w3.org/2000/svg">
<path d="M21.3334 28V25.3333C21.3334 23.9188 20.7714 22.5623 19.7713 21.5621C18.7711 20.5619 17.4145 20 16 20H8.00002C6.58553 20 5.22898 20.5619 4.22878 21.5621C3.22859 22.5623 2.66669 23.9188 2.66669 25.3333V28" stroke="#FFC567" stroke-width="2.66667" stroke-linecap="round" stroke-linejoin="round"/>
<path d="M21.3334 4.16992C22.477 4.46641 23.4899 5.13427 24.2129 6.06867C24.936 7.00307 25.3283 8.15111 25.3283 9.33259C25.3283 10.5141 24.936 11.6621 24.2129 12.5965C23.4899 13.5309 22.477 14.1988 21.3334 14.4953" stroke="#FFC567" stroke-width="2.66667" stroke-linecap="round" stroke-linejoin="round"/>
<path d="M29.3334 28.0005V25.3338C29.3325 24.1521 28.9392 23.0042 28.2152 22.0702C27.4912 21.1363 26.4775 20.4693 25.3334 20.1738" stroke="#FFC567" stroke-width="2.66667" stroke-linecap="round" stroke-linejoin="round"/>
<path d="M12 14.6667C14.9455 14.6667 17.3334 12.2789 17.3334 9.33333C17.3334 6.38781 14.9455 4 12 4C9.0545 4 6.66669 6.38781 6.66669 9.33333C6.66669 12.2789 9.0545 14.6667 12 14.6667Z" stroke="#FFC567" stroke-width="2.66667" stroke-linecap="round" stroke-linejoin="round"/>
</svg>
