<svg width="32" height="32" viewBox="0 0 32 32" fill="none" xmlns="http://www.w3.org/2000/svg">
<path d="M14.6889 3.75192C14.7461 3.44605 14.9084 3.1698 15.1477 2.97101C15.3871 2.77221 15.6885 2.66339 15.9996 2.66339C16.3108 2.66339 16.6121 2.77221 16.8515 2.97101C17.0908 3.1698 17.2531 3.44605 17.3103 3.75192L18.7116 11.1626C18.8111 11.6894 19.0672 12.1741 19.4463 12.5532C19.8255 12.9323 20.3101 13.1884 20.8369 13.2879L28.2476 14.6893C28.5535 14.7464 28.8297 14.9087 29.0285 15.148C29.2273 15.3874 29.3361 15.6888 29.3361 15.9999C29.3361 16.3111 29.2273 16.6124 29.0285 16.8518C28.8297 17.0912 28.5535 17.2535 28.2476 17.3106L20.8369 18.7119C20.3101 18.8114 19.8255 19.0675 19.4463 19.4466C19.0672 19.8258 18.8111 20.3104 18.7116 20.8373L17.3103 28.2479C17.2531 28.5538 17.0908 28.83 16.8515 29.0288C16.6121 29.2276 16.3108 29.3364 15.9996 29.3364C15.6885 29.3364 15.3871 29.2276 15.1477 29.0288C14.9084 28.83 14.7461 28.5538 14.6889 28.2479L13.2876 20.8373C13.1881 20.3104 12.932 19.8258 12.5529 19.4466C12.1738 19.0675 11.6891 18.8114 11.1623 18.7119L3.75161 17.3106C3.44575 17.2535 3.1695 17.0912 2.9707 16.8518C2.77191 16.6124 2.66309 16.3111 2.66309 15.9999C2.66309 15.6888 2.77191 15.3874 2.9707 15.148C3.1695 14.9087 3.44575 14.7464 3.75161 14.6893L11.1623 13.2879C11.6891 13.1884 12.1738 12.9323 12.5529 12.5532C12.932 12.1741 13.1881 11.6894 13.2876 11.1626L14.6889 3.75192Z" stroke="white" stroke-width="2.66667" stroke-linecap="round" stroke-linejoin="round"/>
<path d="M26.667 2.66669V8.00002" stroke="white" stroke-width="2.66667" stroke-linecap="round" stroke-linejoin="round"/>
<path d="M29.3333 5.33331H24" stroke="white" stroke-width="2.66667" stroke-linecap="round" stroke-linejoin="round"/>
<path d="M5.33366 29.3333C6.80642 29.3333 8.00033 28.1394 8.00033 26.6667C8.00033 25.1939 6.80642 24 5.33366 24C3.8609 24 2.66699 25.1939 2.66699 26.6667C2.66699 28.1394 3.8609 29.3333 5.33366 29.3333Z" stroke="white" stroke-width="2.66667" stroke-linecap="round" stroke-linejoin="round"/>
</svg>
