<svg width="77" height="14" viewBox="0 0 77 14" fill="none" xmlns="http://www.w3.org/2000/svg">
<path d="M12.9026 2.61891V12.748C12.1135 13.3187 11.1026 13.604 9.86975 13.604C8.91869 13.604 8.16493 13.4171 7.60838 13.0435C7.02365 12.663 6.73131 12.1128 6.73131 11.3927V9.375H7.4816C7.77042 9.375 7.95005 9.34105 8.02052 9.27313C8.09798 9.19839 8.13675 9.07952 8.13675 8.91648H4.81864C4.81864 9.07952 4.85034 9.19839 4.91373 9.27313C4.97717 9.34105 5.12861 9.375 5.36811 9.375H6.17124V12.748C5.6288 13.0877 5.11455 13.3152 4.62842 13.4307C4.14234 13.5462 3.64568 13.604 3.13846 13.604C2.18741 13.604 1.43362 13.4171 0.877076 13.0435C0.29236 12.663 0 12.1128 0 11.3927V1.25343C0.366329 0.879783 0.817196 0.594435 1.3526 0.397435C1.89505 0.193652 2.45863 0.0917402 3.04335 0.0917402C3.89577 0.0917402 4.61787 0.295523 5.20963 0.703132C5.85072 1.16509 6.17124 1.8037 6.17124 2.61891V4.43278H7.51329C7.51329 4.25613 7.47804 4.13726 7.40761 4.07609C7.34422 4.00818 7.23853 3.97422 7.09061 3.97422H6.73131V1.25343C7.09764 0.879783 7.54851 0.594435 8.08391 0.397435C8.62635 0.193652 9.18993 0.0917402 9.77466 0.0917402C10.6271 0.0917402 11.3492 0.295523 11.9409 0.703132C12.582 1.16509 12.9026 1.8037 12.9026 2.61891ZM18.4503 0.275174H24.5476C24.7519 0.601261 24.9034 0.957915 25.002 1.34513C25.1006 1.72557 25.1499 2.06865 25.1499 2.37435C25.1499 3.06048 25.0091 3.57678 24.7273 3.92326C24.4525 4.26974 24.065 4.44296 23.5648 4.44296H19.3063C19.0456 4.44296 18.9153 4.54148 18.9153 4.73848V4.82C18.9153 4.86074 18.9223 4.88791 18.9364 4.90152H23.9875C24.1144 5.11213 24.2236 5.37705 24.3151 5.69635C24.3997 6.04283 24.4419 6.35191 24.4419 6.62365C24.4419 7.43209 24.2869 8.06387 23.977 8.51904H21.6839C20.6131 8.51904 19.8875 8.55978 19.507 8.64131C19.1266 8.71605 18.8906 8.78061 18.799 8.83496C18.7075 8.89609 18.6617 8.97422 18.6617 9.06931C18.6617 9.16444 18.711 9.23913 18.8096 9.29348C19.1759 9.178 19.5599 9.09648 19.9614 9.04891C20.4898 9.00139 21.064 8.97761 21.6839 8.97761H24.6533C25.083 9.56183 25.2979 10.265 25.2979 11.087C25.2979 11.5489 25.238 11.9905 25.1182 12.4117C24.9985 12.8329 24.8188 13.1726 24.5793 13.4307H16.6645C15.7909 13.4307 15.09 13.2269 14.5616 12.8193C13.9839 12.3845 13.6951 11.746 13.6951 10.9036V1.21265C13.6951 0.886566 14.0826 0.648784 14.8575 0.499349C15.6324 0.349871 16.83 0.275174 18.4503 0.275174ZM34.9352 0.0917402C35.7805 0.0917402 36.5132 0.312523 37.1331 0.754088C37.7531 1.19565 38.063 1.82409 38.063 2.6393V8.30505C38.063 10.0306 37.5171 11.3621 36.4251 12.2996C35.3332 13.2303 33.8221 13.6957 31.8918 13.6957C29.9686 13.6957 28.4715 13.2371 27.4007 12.32C26.3088 11.4029 25.7628 10.0646 25.7628 8.30505V1.03944C26.5941 0.400827 27.5557 0.0815217 28.6477 0.0815217C29.5635 0.0815217 30.2891 0.315914 30.8245 0.784653C31.3599 1.24661 31.6276 1.94974 31.6276 2.89405V8.83496C31.7051 8.88931 31.7932 8.91648 31.8918 8.91648C31.9975 8.91648 32.0714 8.8927 32.1137 8.84513C32.163 8.79078 32.1877 8.69226 32.1877 8.54961V2.88387C32.1877 2.45587 32.1666 2.11617 32.1243 1.86483C32.082 1.61348 31.9975 1.36213 31.8707 1.11074C32.716 0.431393 33.7375 0.0917402 34.9352 0.0917402ZM44.7522 6.17531C44.7801 6.19565 44.8613 6.20587 44.9952 6.20587C45.1291 6.20587 45.231 6.15491 45.3018 6.053C45.3721 5.95109 45.4073 5.78465 45.4073 5.5537V5.18683C45.4073 4.94226 45.3757 4.76904 45.3121 4.66713C45.2558 4.55844 45.157 4.50409 45.0164 4.50409C44.8825 4.50409 44.7909 4.5177 44.7413 4.54487C44.7486 4.57883 44.7522 4.63657 44.7522 4.71809V6.17531ZM50.2049 8.49865L52.0328 10.3023C51.9061 11.3621 51.5575 12.1773 50.9867 12.748C50.4232 13.3187 49.6414 13.604 48.6409 13.604C47.887 13.604 47.2319 13.4307 46.6751 13.0843C45.9636 12.6495 45.4321 11.9565 45.0795 11.0054L44.6994 10.0068C44.4034 10 44.03 9.96265 43.5791 9.89474C43.5227 9.94909 43.4946 10.0238 43.4946 10.1189C43.4946 10.3023 43.7799 10.411 44.3505 10.445L44.9528 11.9124V12.7786C44.1427 13.3288 43.1036 13.604 41.8355 13.604C40.9267 13.604 40.2012 13.4239 39.6587 13.0639C39.1162 12.7038 38.845 12.1807 38.845 11.4946V1.81387C38.845 1.51496 39.1303 1.22626 39.701 0.947697C40.2716 0.662393 41.0183 0.434783 41.9412 0.264957C42.8641 0.0883486 43.7869 0 44.7098 0C46.8234 0 48.4754 0.417826 49.6657 1.25343C50.92 2.12978 51.5467 3.36278 51.5467 4.95248C51.5467 5.86278 51.2789 6.64404 50.7437 7.29622C50.2153 7.94161 49.5462 8.38996 48.736 8.64131C48.736 8.8587 48.8699 8.96739 49.1373 8.96739C49.4123 8.96739 49.7681 8.81118 50.2049 8.49865ZM57.1898 0.275174H63.2869C63.4911 0.601261 63.6426 0.957915 63.7413 1.34513C63.8401 1.72557 63.8892 2.06865 63.8892 2.37435C63.8892 3.06048 63.7485 3.57678 63.4668 3.92326C63.1917 4.26974 62.8044 4.44296 62.3044 4.44296H58.0455C57.7849 4.44296 57.6546 4.54148 57.6546 4.73848V4.82C57.6546 4.86074 57.6618 4.88791 57.6758 4.90152H62.7269C62.8536 5.11213 62.9627 5.37705 63.0547 5.69635C63.139 6.04283 63.1813 6.35191 63.1813 6.62365C63.1813 7.43209 63.0263 8.06387 62.7165 8.51904H60.4234C59.3526 8.51904 58.6267 8.55978 58.2466 8.64131C57.8661 8.71605 57.6298 8.78061 57.5383 8.83496C57.4468 8.89609 57.4008 8.97422 57.4008 9.06931C57.4008 9.16444 57.4504 9.23913 57.5491 9.29348C57.9152 9.178 58.2994 9.09648 58.7006 9.04891C59.2291 9.00139 59.8035 8.97761 60.4234 8.97761H63.3928C63.8225 9.56183 64.0371 10.265 64.0371 11.087C64.0371 11.5489 63.9771 11.9905 63.8576 12.4117C63.7377 12.8329 63.5583 13.1726 63.3189 13.4307H55.4039C54.5301 13.4307 53.8295 13.2269 53.301 12.8193C52.7235 12.3845 52.4345 11.746 52.4345 10.9036V1.21265C52.4345 0.886566 52.8218 0.648784 53.5968 0.499349C54.3719 0.349871 55.5694 0.275174 57.1898 0.275174ZM70.2929 9.71131C70.5255 9.67052 70.6418 9.55844 70.6418 9.375C70.6418 9.18478 70.5783 8.97422 70.4516 8.74322C70.3316 8.50544 70.1522 8.28126 69.9123 8.07065C69.2856 7.52718 68.4367 7.25544 67.3658 7.25544C66.8374 7.25544 66.3442 7.34039 65.8866 7.51022C65.4005 7.27244 65.0128 6.89539 64.7242 6.37909C64.4352 5.86278 64.2909 5.30574 64.2909 4.70792C64.2909 3.14539 64.9672 1.93957 66.3198 1.09039C67.4822 0.363478 68.9159 0 70.6207 0C71.8885 0 72.9557 0.132479 73.8223 0.397435C74.6888 0.655609 75.3971 0.988479 75.9463 1.39609C76.1086 1.84444 76.1893 2.30978 76.1893 2.79213C76.1893 3.27448 76.1226 3.71265 75.9887 4.1067C75.8548 4.5007 75.6609 4.81661 75.4075 5.05435C75.1681 4.88452 74.7348 4.7113 74.1077 4.53465C73.481 4.35804 72.9102 4.26974 72.3957 4.26974C71.8817 4.26974 71.5364 4.3003 71.3601 4.36143C71.191 4.42256 71.1067 4.5177 71.1067 4.64674C71.1067 4.70791 71.1171 4.76565 71.1383 4.82C71.3849 4.75887 71.7018 4.72826 72.0896 4.72826C73.4634 4.72826 74.5833 5.04078 75.4499 5.66578C76.4711 6.41304 76.9819 7.534 76.9819 9.02857C76.9819 10.3465 76.4292 11.4402 75.3227 12.3098C74.1252 13.2405 72.5156 13.7059 70.494 13.7059C69.3808 13.7059 68.4155 13.6243 67.5985 13.4613C66.7811 13.305 65.9853 13.0265 65.2103 12.6257C64.6818 11.8852 64.4176 11.1345 64.4176 10.3737C64.4176 9.606 64.689 8.97083 65.2314 8.46809C65.7738 7.96539 66.4393 7.714 67.2283 7.714C68.0246 7.714 68.6725 7.87026 69.1729 8.18278C69.6801 8.49526 70.0535 9.00478 70.2929 9.71131Z" fill="black"/>
</svg>
