<svg width="64" height="64" viewBox="0 0 64 64" fill="none" xmlns="http://www.w3.org/2000/svg">
<path d="M50.6667 29.3334H13.3333C10.3878 29.3334 8 31.7212 8 34.6667V53.3334C8 56.2789 10.3878 58.6667 13.3333 58.6667H50.6667C53.6122 58.6667 56 56.2789 56 53.3334V34.6667C56 31.7212 53.6122 29.3334 50.6667 29.3334Z" stroke="white" stroke-width="6.66667" stroke-linecap="round" stroke-linejoin="round"/>
<path d="M18.6665 29.3334V18.6667C18.6665 15.1305 20.0713 11.7391 22.5717 9.23862C25.0722 6.73813 28.4636 5.33337 31.9998 5.33337C35.5361 5.33337 38.9274 6.73813 41.4279 9.23862C43.9284 11.7391 45.3332 15.1305 45.3332 18.6667V29.3334" stroke="white" stroke-width="6.66667" stroke-linecap="round" stroke-linejoin="round"/>
</svg>
