<svg width="32" height="32" viewBox="0 0 32 32" fill="none" xmlns="http://www.w3.org/2000/svg">
<path d="M16 29.3327C12.4637 29.3327 9.07235 27.9279 6.57187 25.4274C4.07138 22.927 2.66663 19.5356 2.66663 15.9993C2.66663 12.4631 4.07138 9.07174 6.57187 6.57126C9.07235 4.07077 12.4637 2.66602 16 2.66602C19.5362 2.66602 22.9276 3.9303 25.428 6.18073C27.9285 8.43117 29.3333 11.4834 29.3333 14.666C29.3333 16.4341 28.6309 18.1298 27.3807 19.3801C26.1304 20.6303 24.4347 21.3327 22.6666 21.3327H19.6666C19.2333 21.3327 18.8085 21.4533 18.4399 21.6812C18.0713 21.909 17.7734 22.2349 17.5796 22.6225C17.3858 23.0101 17.3038 23.444 17.3427 23.8756C17.3816 24.3071 17.54 24.7194 17.8 25.066L18.2 25.5993C18.46 25.946 18.6183 26.3582 18.6572 26.7898C18.6961 27.2214 18.6141 27.6553 18.4203 28.0428C18.2265 28.4304 17.9286 28.7564 17.56 28.9842C17.1914 29.212 16.7666 29.3327 16.3333 29.3327H16Z" stroke="#FB7DA8" stroke-width="2.66667" stroke-linecap="round" stroke-linejoin="round"/>
<path d="M18 9.33333C18.3682 9.33333 18.6667 9.03486 18.6667 8.66667C18.6667 8.29848 18.3682 8 18 8C17.6319 8 17.3334 8.29848 17.3334 8.66667C17.3334 9.03486 17.6319 9.33333 18 9.33333Z" fill="#FB7DA8" stroke="#FB7DA8" stroke-width="2.66667" stroke-linecap="round" stroke-linejoin="round"/>
<path d="M23.3333 14.6673C23.7015 14.6673 24 14.3688 24 14.0007C24 13.6325 23.7015 13.334 23.3333 13.334C22.9651 13.334 22.6666 13.6325 22.6666 14.0007C22.6666 14.3688 22.9651 14.6673 23.3333 14.6673Z" fill="#FB7DA8" stroke="#FB7DA8" stroke-width="2.66667" stroke-linecap="round" stroke-linejoin="round"/>
<path d="M8.66667 17.3333C9.03486 17.3333 9.33333 17.0349 9.33333 16.6667C9.33333 16.2985 9.03486 16 8.66667 16C8.29848 16 8 16.2985 8 16.6667C8 17.0349 8.29848 17.3333 8.66667 17.3333Z" fill="#FB7DA8" stroke="#FB7DA8" stroke-width="2.66667" stroke-linecap="round" stroke-linejoin="round"/>
<path d="M11.3333 10.6673C11.7015 10.6673 12 10.3688 12 10.0007C12 9.63246 11.7015 9.33398 11.3333 9.33398C10.9651 9.33398 10.6666 9.63246 10.6666 10.0007C10.6666 10.3688 10.9651 10.6673 11.3333 10.6673Z" fill="#FB7DA8" stroke="#FB7DA8" stroke-width="2.66667" stroke-linecap="round" stroke-linejoin="round"/>
</svg>
